<svg xmlns="http://www.w3.org/2000/svg" data-name="Layer 1" viewBox="0 0 5 6.25" x="0px" y="0px"><title>icon</title><g><g><path d="M4.25955,3.849c-.10931,0-.30078-.46046-.50347-.948-.24469-.58849-.522-1.25563-.68838-1.18048-.09923.04483-.10407.26618-.1092.50052-.0055.25083-.01117.51016-.14833.51016-.14782,0-.26486-.17831-.38878-.3671a1.32547,1.32547,0,0,0-.29089-.354c-.33243-.23258-.50679.26517-.69135.79227-.15367.43884-.31259.89264-.57152.89264V3.67634c.25443,0,.412-.44994.56434-.885.17836-.50928.36279-1.0358.70134-.7989a1.33151,1.33151,0,0,1,.29331.35655c.12273.18694.23864.36353.38356.36353.12865,0,.13387-.23911.13942-.49224.00507-.23115.01031-.47016.11626-.518.17141-.07726.43856.56511.69692,1.18648.20135.48422.39151.94159.49678.94159Z" fill="#000000"/><path d="M4.25955,3.849c-.1202,0-.29718-.45926-.48455-.94549-.22041-.572-.47024-1.21966-.65024-1.15194-.10825.04113-.11977.25508-.132.48159-.01321.24485-.02686.498-.17608.498-.16078,0-.28827-.16331-.42324-.33623a1.29029,1.29029,0,0,0-.31729-.32467c-.35809-.21058-.5019.257-.65412.75225-.13186.429-.26821.87252-.55441.87252V3.67634c.28137,0,.41638-.4392.54694-.86395.154-.5012.29953-.97467.664-.76011a1.29644,1.29644,0,0,1,.31952.32669c.13387.17149.26032.3335.4186.3335.14125,0,.15387-.23385.16722-.48143.01205-.22333.02452-.45429.13927-.49789.18528-.07064.42594.55437.65873,1.15857.186.48266.36168.93854.47765.93854Z" fill="#000000"/><path d="M4.25955,3.849c-.132,0-.29212-.45764-.46162-.94218C3.59343,2.32232,3.382,1.7181,3.187,1.7801c-.11816.03772-.13692.24508-.15682.46465-.02165.23917-.04405.48649-.20637.48649-.175,0-.31382-.14961-.46082-.308a1.31365,1.31365,0,0,0-.346-.29773c-.386-.191-.49812.25-.61674.7169-.10649.41923-.21662.85272-.53256.85272V3.67634c.31061,0,.41946-.42845.52472-.84278.12027-.47351.23391-.92072.62662-.72632a1.318,1.318,0,0,1,.348.29929c.146.15734.284.30594.45677.30594.155,0,.17569-.22891.19764-.47127.01957-.21629.03983-.43995.16421-.47968.20036-.06391.41339.54515.61947,1.13422.16813.48058.32693.93452.45446.93452Z" fill="#000000"/><path d="M4.25955,3.849c-.14487,0-.28564-.45572-.43465-.93822-.17634-.571-.35866-1.161-.57009-1.10465-.129.03467-.15565.23619-.18386.44952-.03091.23378-.06288.47556-.23944.47556a.80579.80579,0,0,1-.50184-.28215,1.39451,1.39451,0,0,0-.3774-.27306c-.41652-.17328-.49535.24391-.57884.68568-.07741.40972-.15745.8334-.50581.8334V3.67634c.34233,0,.42123-.41764.49756-.82155.08487-.44923.165-.87362.58882-.69713a1.39891,1.39891,0,0,1,.3792.27423.80172.80172,0,0,0,.49831.28059c.16981,0,.19945-.2243.23086-.46182.02775-.20986.05644-.42686.19132-.46309.21677-.05843.40082.53717.57867,1.113.14768.47812.28713.92968.4272.92968Z" fill="#000000"/><path d="M4.25955,3.849c-.15887,0-.27771-.45361-.40356-.93384-.14648-.55894-.2981-1.13678-.5272-1.08514-.1409.03184-.17609.22814-.21335.436-.041.22872-.08339.4652-.27548.4652a.93206.93206,0,0,1-.54662-.25849,1.54046,1.54046,0,0,0-.41156-.2504c-.44966-.15728-.49366.23869-.54016.658-.04442.40054-.09034.8147-.474.8147V3.67634c.3766,0,.42171-.4068.46533-.80023.04748-.42816.09233-.8324.5503-.67227a1.54588,1.54588,0,0,1,.41311.25128A.9281.9281,0,0,0,2.84,2.71247c.18592,0,.22539-.22005.26716-.45306.03655-.204.07438-.41495.22072-.448.23523-.053.38806.53041.536,1.09471.12454.47526.24217.92413.39576.92413Z" fill="#000000"/><path d="M4.25955,3.849c-.174,0-.26836-.45134-.36821-.92913-.11458-.5483-.23311-1.115-.4819-1.068-.1539.02925-.19841.22093-.24554.42388-.052.22388-.10575.45543-.31474.45543a1.10634,1.10634,0,0,1-.59545-.23687,1.76368,1.76368,0,0,0-.44875-.2296c-.21153-.06223-.34958-.03055-.422.09706a1.24591,1.24591,0,0,0-.07837.53645c-.0073.39174-.01482.79682-.43694.79682V3.67634c.41355,0,.42091-.39593.428-.7788a1.266,1.266,0,0,1,.08158-.55008c.07552-.133.21183-.16516.429-.10125a1.76781,1.76781,0,0,1,.45011.23024,1.10252,1.10252,0,0,0,.59286.236c.20343,0,.256-.22616.30676-.44491.04613-.19866.09384-.40411.25272-.43426.255-.04925.375.5247.49084,1.079.09865.47208.19184.91793.36008.91793Z" fill="#000000"/><path d="M4.25955,3.849c-.19056,0-.25754-.44893-.32846-.92429-.08039-.53875-.16355-1.09578-.43372-1.05268-.1681.02684-.2228.2144-.2807.41294-.064.2194-.13013.44624-.35752.44624a1.34192,1.34192,0,0,1-.64869-.217,2.07683,2.07683,0,0,0-.48933-.21054c-.23673-.05872-.38062-.02207-.43988.11173a1.13686,1.13686,0,0,0-.01923.5,1.34228,1.34228,0,0,1-.023.56508.35211.35211,0,0,1-.37145.2146v-.0187a.345.345,0,0,0,.36461-.20785,1.31921,1.31921,0,0,0,.02108-.54969,1.15664,1.15664,0,0,1,.02145-.51619c.06219-.14036.20438-.17772.44742-.11757a2.08043,2.08043,0,0,1,.49051.211,1.338,1.338,0,0,0,.64647.21645c.22241,0,.28725-.22233.35-.43735.05652-.19383.115-.39424.28759-.42183.27735-.04415.36145.52.44287,1.06576.06991.46861.13594.91121.32.91121Z" fill="#000000"/><path d="M4.25955,3.849c-.20857,0-.24529-.44663-.28416-.91952-.04358-.53022-.08863-1.07916-.38216-1.039-.18358.02464-.24938.20846-.319.4031-.077.21518-.15668.43767-.40411.43767a1.655,1.655,0,0,1-.70678-.19886,2.50811,2.50811,0,0,0-.53357-.193c-.25983-.05408-.40823-.01558-.45367.11774a1.03419,1.03419,0,0,0,.03781.47491,1.2006,1.2006,0,0,1,.03951.54622c-.04473.14594-.17092.2169-.38578.2169v-.0187c.21159,0,.33536-.06817.37832-.20837a1.17987,1.17987,0,0,0-.04014-.52837,1.05149,1.05149,0,0,1-.03693-.49351c.04811-.14117.19483-.181.46176-.12546a2.51212,2.51212,0,0,1,.53455.19337,1.65158,1.65158,0,0,0,.70491.19847c.243,0,.32131-.21872.397-.43027.0678-.18941.13791-.38528.32554-.4105.30152-.04064.34723.51619.39148,1.05456.03821.46491.0743.904.2754.904Z" fill="#000000"/><path d="M4.25955,3.849c-.22827,0-.23156-.44439-.235-.91491a2.42384,2.42384,0,0,0-.10091-.89271.21117.21117,0,0,0-.22588-.1341c-.20044.02266-.27835.20311-.36085.39417-.09122.21129-.18556.42975-.45487.42975A2.069,2.069,0,0,1,2.11181,2.549a3.08282,3.08282,0,0,0-.58166-.177c-.28035-.04915-.43285-.01117-.46611.116a.95026.95026,0,0,0,.096.46036,1.08413,1.08413,0,0,1,.105.53664c-.03345.14143-.16346.21015-.39743.21015v-.0187c.23027,0,.35767-.06535.38948-.1998a1.06934,1.06934,0,0,0-.1041-.517.96068.96068,0,0,1-.09674-.48068c.03563-.13608.18642-.1761.47463-.12553a3.09023,3.09023,0,0,1,.5825.17721,2.065,2.065,0,0,0,.7686.182c.2654,0,.35838-.21538.44831-.42365.08006-.18545.16284-.3772.36695-.40028a.21805.21805,0,0,1,.2324.13909,2.43911,2.43911,0,0,1,.10373.90612c.00342.461.00666.89651.22617.89651Z" fill="#000000"/><path d="M4.25955,3.849a.16713.16713,0,0,1-.16112-.12287,2.15173,2.15173,0,0,1-.01971-.78757A2.27222,2.27222,0,0,0,4.05,2.07007a.2152.2152,0,0,0-.23839-.14734c-.21885.02081-.31.19821-.40649.38606-.10669.20768-.217.42241-.51018.42241a2.61154,2.61154,0,0,1-.83934-.167,3.84486,3.84486,0,0,0-.63406-.1623c-.299-.044-.45591-.00828-.47977.10939a.91631.91631,0,0,0,.15879.45319,1.00579,1.00579,0,0,1,.17617.533c-.009.04889-.0363.19763-.40914.19763v-.0187c.24679,0,.37792-.06074.40085-.18568a1,1,0,0,0-.17384-.51243.89944.89944,0,0,1-.161-.47439c.0259-.1276.18113-.166.48856-.12066a3.84936,3.84936,0,0,1,.63479.16244,2.6078,2.6078,0,0,0,.838.16685c.28967,0,.39871-.21223.50413-.41745.09772-.19022.19-.36989.41213-.391a.22246.22246,0,0,1,.2454.15357,2.28784,2.28784,0,0,1,.03085.88391,2.13964,2.13964,0,0,0,.01769.77248.15926.15926,0,0,0,.15437.11631Z" fill="#000000"/><path d="M4.25955,3.849a.16532.16532,0,0,1-.168-.129,2.0064,2.0064,0,0,1,.04678-.77705,2.12824,2.12824,0,0,0,.04535-.851.21629.21629,0,0,0-.24788-.15506c-.23893.01909-.34451.19373-.45629.37866-.12355.20434-.25129.41563-.57044.41563a3.31967,3.31967,0,0,1-.91469-.15312,4.84936,4.84936,0,0,0-.69125-.14874c-.3167-.03921-.479-.00613-.49618.10105-.0166.10391.10791.27984.22831.44994.13548.19142.27557.38934.255.53184-.018.12478-.15233.18289-.42267.18289v-.0187c.25856,0,.39792-.05707.41416-.16964.01868-.12923-.11863-.32325-.25143-.51084-.12884-.182-.25055-.354-.23177-.47146.01883-.11793.17931-.15409.50511-.11374a4.84813,4.84813,0,0,1,.69185.14887,3.31694,3.31694,0,0,0,.91357.153c.31607,0,.44261-.20928.565-.41164.11295-.18685.21964-.3633.46144-.38265a.22381.22381,0,0,1,.25537.16266,2.14187,2.14187,0,0,1-.04412.8683,1.99726,1.99726,0,0,0-.04792.76.157.157,0,0,0,.16071.12111Z" fill="#000000"/><path d="M4.25955,3.849a.16194.16194,0,0,1-.17307-.13059,1.87723,1.87723,0,0,1,.11731-.771,2.00125,2.00125,0,0,0,.12275-.84067.21516.21516,0,0,0-.25536-.15679.66977.66977,0,0,0-.51058.37191.73019.73019,0,0,1-.63605.4094,4.2447,4.2447,0,0,1-.99684-.14033,6.15807,6.15807,0,0,0-.75361-.13637c-.33018-.03444-.50378-.00315-.516.09287-.01293.101.14919.27761.306.44845.18444.201.35866.39083.34248.531-.01327.11481-.15273.16828-.43888.16828v-.0187c.27369,0,.41845-.05181.43025-.154.01454-.12582-.1727-.32987-.33792-.5099C.78543,2.82225.63471,2.658.6495,2.54251c.00875-.06836.07271-.15364.525-.1067a6.16158,6.16158,0,0,1,.75413.1365,4.2415,4.2415,0,0,0,.99588.1402.7245.7245,0,0,0,.63111-.40622A.67549.67549,0,0,1,4.0709,1.9312a.22309.22309,0,0,1,.26323.16584,2.00935,2.00935,0,0,1-.12262.85953,1.874,1.874,0,0,0-.11735.75241.15323.15323,0,0,0,.1654.12131Z" fill="#000000"/></g><g><path d="M2.04355,4.13631a1.28934,1.28934,0,0,1-.59371-.21843,1.27937,1.27937,0,0,0-.58133-.2156H.86763l0-.03311H.8685a1.28507,1.28507,0,0,1,.58537.21674c.40911.22875.83211.46529,1.29848-.36a4.86739,4.86739,0,0,0,.21685-1.45347C3.01078,1.451,3.05.86411,3.20228.86385h.00026c.171,0,.28021.28124.38582.55326a1.79231,1.79231,0,0,0,.24366.48977A2.42727,2.42727,0,0,1,4.08328,3.074c.02969.40193.05533.74907.17615.74907h.00011V3.8562H4.25943c-.13427,0-.16089-.36012-.19169-.77708A2.40421,2.40421,0,0,0,3.82457,1.936a1.81157,1.81157,0,0,1-.24838-.498C3.46818,1.15983,3.36611.897,3.20256.897H3.20231c-.13862.00023-.177.57333-.21754,1.18009a4.77556,4.77556,0,0,1-.2223,1.47415C2.51156,3.99527,2.27348,4.13628,2.04355,4.13631Z" fill="#000000"/><path d="M1.903,3.97894a1.25414,1.25414,0,0,1-.47233-.12906,1.44829,1.44829,0,0,0-.56158-.1476H.86763l0-.03311H.86906a1.455,1.455,0,0,1,.56463.14825c.74183.30857.98127-.04785,1.2585-.46046A3.9212,3.9212,0,0,0,2.941,2.00739c.05287-.58793.10281-1.14324.26849-1.14353h.00034c.18566,0,.30448.25745.41942.50646a1.55945,1.55945,0,0,0,.26571.4491c.20016.19133.21089.7417.22033,1.22725.00812.4166.01513.77643.14411.77643h.00012V3.8562H4.2594c-.14407,0-.15135-.37454-.15979-.80818-.00928-.476-.01977-1.01557-.21113-1.19849A1.57686,1.57686,0,0,1,3.618,1.39339C3.50017,1.13811,3.38886.897,3.20987.897H3.20953c-.15267.00026-.20144.54249-.25308,1.11659A3.92992,3.92992,0,0,1,2.70125,3.384C2.392,3.84429,2.13833,3.9789,1.903,3.97894Z" fill="#000000"/><path d="M4.2594,3.8562c-.03763,0-.0676-.02464-.08909-.0732a2.35587,2.35587,0,0,1-.03815-.76764c.01694-.50444.03612-1.07621-.17409-1.24514a1.41909,1.41909,0,0,1-.2945-.4178c-.12854-.23424-.25-.45549-.44572-.45549H3.21742c-.168.00029-.22821.51372-.29194,1.05735a3.26449,3.26449,0,0,1-.29084,1.2763c-.58611.73365-.8597.65967-1.23836.55732A1.91666,1.91666,0,0,0,.87,3.70227H.86763l0-.03311a1.95067,1.95067,0,0,1,.53067.08592c.37552.10151.64687.1749,1.22833-.55294a3.25141,3.25141,0,0,0,.28362-1.25582c.06527-.55651.12691-1.08219.30719-1.08251h.00043c.20161,0,.32518.22521.456.46361a1.40544,1.40544,0,0,0,.28983.4119c.22109.17769.20147.76244.18418,1.27835a2.40442,2.40442,0,0,0,.03394.74274c.01866.0422.04405.06268.07762.06268h.00014V3.8562Z" fill="#000000"/><path d="M4.2594,3.85617c-.04127,0-.0727-.02652-.09344-.07882a2.36882,2.36882,0,0,1,.00051-.795c.04569-.5294.09749-1.12948-.13261-1.285a1.32869,1.32869,0,0,1-.32065-.38259C3.573,1.09994,3.44054.8969,3.2266.8969H3.226c-.18463.00033-.25739.48695-.33444,1.00213a2.74476,2.74476,0,0,1-.3295,1.191c-.68068.71658-.84276.696-1.23443.6461a3.38985,3.38985,0,0,0-.46-.03385l0-.033H.8727a3.34206,3.34206,0,0,1,.4559.03389c.38868.04947.54954.06992,1.22646-.6427A2.72833,2.72833,0,0,0,2.8766,1.8891C2.95543,1.362,3.02987.86418,3.226.86385H3.2266c.21905,0,.35351.20606.49586.42426a1.31541,1.31541,0,0,0,.31619.37781c.24322.16435.19012.77959.14326,1.3224a2.42289,2.42289,0,0,0-.0039.76783c.01787.04506.04449.067.08137.067h.00015v.033Z" fill="#000000"/><path d="M4.25888,3.85617c-.21252,0-.37216-.17273-.557-.37272a2.18306,2.18306,0,0,0-.51028-.44462.18657.18657,0,0,1-.07809-.12793,3.20838,3.20838,0,0,1,.11233-1.01434A2.77811,2.77811,0,0,0,3.32848.976.09442.09442,0,0,0,3.23557.89686H3.23538c-.20269.00036-.28919.462-.38079.95065A2.34219,2.34219,0,0,1,2.48309,2.961c-.09859.08729-.18475.16448-.2609.23271-.58175.52106-.5818.52122-1.07186.51168C1.06953,3.70383.978,3.70224.86763,3.70224l0-.033c.1105,0,.202.00159.28286.00312.4868.00922.48683.00935,1.06558-.50905.07618-.06823.16235-.14546.261-.23274A2.32478,2.32478,0,0,0,2.84,1.83538c.09361-.49945.182-.9712.39535-.97156h.00022c.0507,0,.08635.03158.106.09384a2.70225,2.70225,0,0,1-.10127.95173,3.20842,3.20842,0,0,0-.11269.987.15887.15887,0,0,0,.06809.1105,2.1952,2.1952,0,0,1,.51337.44715c.183.198.34111.36908.54982.36908h.00066v.033Z" fill="#000000"/><path d="M4.25884,3.85617c-.214,0-.32947-.171-.46325-.36892a1.32416,1.32416,0,0,0-.51411-.50977.1898.1898,0,0,1-.09127-.13494,2.94691,2.94691,0,0,1,.08638-.96175A2.602,2.602,0,0,0,3.35654.98837.11188.11188,0,0,0,3.24583.89686H3.24558c-.22226.00039-.3238.43874-.43133.90284a2.03728,2.03728,0,0,1-.41715,1.043,4.658,4.658,0,0,0-.68781.60829c-.2083.22171-.235.25021-.84167.25125l0-.033c.60288-.001.62927-.02911.8346-.24771a4.67431,4.67431,0,0,1,.68967-.60994,2.01916,2.01916,0,0,0,.40828-1.02632c.10973-.47364.21337-.921.44541-.9214H3.2458a.12865.12865,0,0,1,.12367.10585,2.54591,2.54591,0,0,1-.07823.923A2.93982,2.93982,0,0,0,3.204,2.827a.16442.16442,0,0,0,.08091.11832,1.3367,1.3367,0,0,1,.51965.515c.13159.1947.24527.36288.45426.36288h.00068v.033Z" fill="#000000"/><path d="M4.25881,3.85617c-.22321,0-.30268-.17591-.39469-.37956a.918.918,0,0,0-.48475-.55537.197.197,0,0,1-.10661-.14293,2.72406,2.72406,0,0,1,.06-.91274,2.44522,2.44522,0,0,0,.05569-.86362A.13218.13218,0,0,0,3.257.89683H3.25674c-.24349.00042-.36151.41719-.48646.85846-.11617.41028-.23628.83451-.4668.979a1.75565,1.75565,0,0,0-.73733.71485c-.09606.17834-.13581.25219-.69852.25313l0-.033c.5568-.00094.59526-.07235.68815-.24488A1.77176,1.77176,0,0,1,2.299,2.70257c.22465-.14075.34319-.55937.4578-.96419.12731-.44955.24753-.87414.4999-.8746H3.257a.14722.14722,0,0,1,.14417.1189,2.40589,2.40589,0,0,1-.05359.89349,2.70923,2.70923,0,0,0-.06127.88547.17314.17314,0,0,0,.096.12712.934.934,0,0,1,.49318.56508c.08951.19814.16686.36928.38333.36928h.00072v.033Z" fill="#000000"/><path d="M4.25875,3.85617c-.23742,0-.28272-.18408-.33518-.39719a.68768.68768,0,0,0-.43752-.58936.20788.20788,0,0,1-.12441-.15172,2.53189,2.53189,0,0,1,.033-.86694,2.30817,2.30817,0,0,0,.02994-.83441A.15586.15586,0,0,0,3.26922.89683H3.26885c-.26648.00042-.40245.3972-.54643.81724-.13287.38771-.27027.78864-.52088.92076-.62621.33013-.6753.59608-.70778.77208-.035.1898-.05432.29436-.62613.2953l0-.033c.5611-.001.579-.098.61155-.27429.03566-.19321.08449-.45787.71857-.79211.245-.12923.38075-.52515.512-.90806.14637-.42709.28463-.83048.55911-.83093l.00039,0A.17047.17047,0,0,1,3.4371.99668,2.28137,2.28137,0,0,1,3.40972,1.86a2.51094,2.51094,0,0,0-.03486.84012.18557.18557,0,0,0,.11369.13686.70814.70814,0,0,1,.44892.60676c.05218.21191.09341.37937.32125.37937l.00082,0v.033Z" fill="#000000"/><path d="M4.25872,3.85614c-.25582,0-.26642-.20357-.27768-.41907-.0126-.24144-.02689-.51512-.37875-.61481a.2202.2202,0,0,1-.145-.16113,2.36739,2.36739,0,0,1,.00542-.824A2.18725,2.18725,0,0,0,3.4655,1.032a.18353.18353,0,0,0-.183-.13526H3.282c-.29137.00052-.447.37866-.61166.779-.15108.36723-.3073.74693-.57988.86784-.36955.164-.57915.34071-.64072.54044a.65323.65323,0,0,0-.01288.27017.42719.42719,0,0,1-.0074.19133c-.03584.09352-.14512.15594-.56187.15662l0-.033c.34673-.00059.51113-.04376.54972-.14435a.37255.37255,0,0,0,.00425-.1637.71659.71659,0,0,1,.01505-.29507c.064-.20746.27679-.38888.65064-.55473.26742-.11864.42188-.49409.57127-.8572.16711-.40622.325-.78987.62349-.79039h.00045a.19767.19767,0,0,1,.19525.14763,2.21075,2.21075,0,0,1,.00025.83292,2.34161,2.34161,0,0,0-.00783.798.20187.20187,0,0,0,.13423.14724c.364.10316.37966.403.39224.6439.01137.21772.02035.38973.262.38973h.00088v.033Z" fill="#000000"/><path d="M4.25857,3.85614c-.12025,0-.19012-.03863-.21982-.12157a.74048.74048,0,0,1,.00179-.32084.91842.91842,0,0,0,.00006-.38648.38291.38291,0,0,0-.31166-.24846.23945.23945,0,0,1-.16867-.17084,2.22691,2.22691,0,0,1-.02287-.784A2.08035,2.08035,0,0,0,3.51165,1.048.21584.21584,0,0,0,3.297.89673H3.29648c-.3184.00055-.49532.36149-.68266.74358-.1709.3486-.34763.709-.64428.8198-.3918.14627-.60087.31435-.63913.51379a.64626.64626,0,0,0,.05142.32974.44727.44727,0,0,1,.04019.23307c-.02069.0855-.10216.16474-.55438.16549l0-.033c.34923-.00059.51591-.04606.54044-.14747A.41061.41061,0,0,0,1.36914,3.323a.69206.69206,0,0,1-.05327-.36145c.041-.21379.24787-.38346.65094-.53392.29194-.109.46691-.46591.63613-.811.18965-.38687.36881-.75232.69353-.75287H3.297a.22947.22947,0,0,1,.22653.16276,2.11041,2.11041,0,0,1,.02934.8025,2.19649,2.19649,0,0,0,.01985.7589.22244.22244,0,0,0,.158.15809.39859.39859,0,0,1,.32291.2629.98006.98006,0,0,1,.002.41388.704.704,0,0,0-.00438.29189c.02623.0732.095.10959.20831.10849v.033Z" fill="#000000"/><path d="M4.25844,3.85614c-.12543,0-.1934-.03785-.21386-.119a.71884.71884,0,0,1,.05923-.34522.88082.88082,0,0,0,.06888-.41946c-.02717-.12144-.12717-.19781-.30576-.23349-.27852-.0557-.26285-.49876-.24768-.92725a1.98836,1.98836,0,0,0-.0558-.74764.25383.25383,0,0,0-.25063-.1673H3.31218c-.34761.00059-.5478.34548-.75975.7106-.19253.33172-.39163.6747-.71465.77618-.40641.1277-.61656.283-.64245.47487a.69039.69039,0,0,0,.12976.39885.47889.47889,0,0,1,.097.27852c-.01422.08187-.09122.16568-.55448.16646l0-.033c.35122-.00059.52273-.04661.53979-.14481a.47867.47867,0,0,0-.09242-.242.72239.72239,0,0,1-.1347-.433c.02814-.2085.23631-.36688.65519-.49847.31876-.10018.51615-.44024.70705-.7691.21417-.369.41646-.71745.76963-.71807h.00068a.26689.26689,0,0,1,.26209.17782,2.02152,2.02152,0,0,1,.05993.77254c-.01525.43164-.02968.83934.23357.892.18457.03691.28872.11942.31844.25229a.9323.9323,0,0,1-.07008.452.69756.69756,0,0,0-.05837.31127c.01723.0683.08265.10151.2.10151h.0011v.033Z" fill="#000000"/><path d="M4.25832,3.85614c-.1288,0-.19546-.03564-.20978-.11212a.70778.70778,0,0,1,.12306-.37184.9011.9011,0,0,0,.1476-.45793c-.01821-.11011-.11977-.18142-.30186-.212-.30169-.05064-.30516-.48347-.3085-.902-.00374-.465-.00718-.90414-.37954-.90355-.37929.00065-.60479.33068-.84353.68012a1.56881,1.56881,0,0,1-.79154.73657c-.41476.10969-.63451.25647-.65314.43628a.76978.76978,0,0,0,.22345.46429c.099.12929.1773.23138.16488.32335-.01094.08112-.08623.16412-.56178.16493l0-.033c.13056-.00019.52786-.00088.54676-.14094.00918-.068-.07584-.179-.15808-.28634a.78776.78776,0,0,1-.23049-.49932c.02076-.20041.23254-.3472.66648-.462a1.55776,1.55776,0,0,0,.78456-.73093c.24081-.35246.46826-.68535.85244-.686h.00077c.387,0,.39073.47578.39441.93595.00339.42248.0066.82149.29413.86976.19149.03214.29465.10868.31539.234a.90606.90606,0,0,1-.15172.49289.73716.73716,0,0,0-.11916.33564c.01132.06054.077.09122.19523.09122h.0012v.033Z" fill="#000000"/></g></g><text x="0" y="20" fill="#000000" font-size="5px" font-weight="bold" font-family="'Helvetica Neue', Helvetica, Arial-Unicode, Arial, Sans-serif">Created by Alice Noir</text><text x="0" y="25" fill="#000000" font-size="5px" font-weight="bold" font-family="'Helvetica Neue', Helvetica, Arial-Unicode, Arial, Sans-serif">from the Noun Project</text></svg>